# 3ds Max Wavefront OBJ Exporter v0.97b - (c)2007 guruware
# File Created: 24.09.2013 17:27:54

#
# object fx_ground_explosion_b
#

v  0.0000 -120.4416 -0.0000
v  -104.9884 568.6053 236.7428
v  -209.9769 517.8218 118.3714
v  209.9769 554.9868 118.3714
v  -209.9769 497.0469 -118.3714
v  209.9769 506.7485 -118.3714
v  -104.9884 622.9713 -236.7428
v  0.0000 622.3538 236.7428
v  104.9884 510.2527 236.7428
v  -209.9769 541.4956 -0.0000
v  209.9769 484.9720 -0.0000
v  0.0000 404.6100 -236.7428
v  104.9884 492.0946 -236.7428
v  0.0000 -40.5715 -0.0000
v  -282.6612 229.4631 159.3461
v  141.3306 226.2608 318.6922
v  282.6612 245.1867 159.3461
v  -282.6612 220.6737 -159.3461
v  -141.3306 273.9494 -318.6922
v  141.3306 218.5785 -318.6922
v  -141.3306 250.9484 318.6922
v  0.0000 273.6882 318.6922
v  -282.6612 239.4789 -0.0000
v  282.6612 215.5651 -0.0000
v  282.6612 224.7782 -159.3461
v  0.0000 181.5658 -318.6922
v  -104.9884 568.6053 236.7428
v  -209.9769 517.8218 118.3714
v  209.9769 554.9868 118.3714
v  -209.9769 497.0469 -118.3714
v  209.9769 506.7485 -118.3714
v  -104.9884 622.9713 -236.7428
v  0.0000 622.3538 236.7428
v  104.9884 510.2527 236.7428
v  -209.9769 541.4956 -0.0000
v  209.9769 484.9720 -0.0000
v  0.0000 -120.4416 -0.0000
v  0.0000 404.6100 -236.7428
v  104.9884 492.0946 -236.7428
v  -282.6612 229.4631 159.3461
v  141.3306 226.2608 318.6922
v  282.6612 245.1867 159.3461
v  -282.6612 220.6737 -159.3461
v  -141.3306 273.9494 -318.6922
v  141.3306 218.5785 -318.6922
v  -141.3306 250.9484 318.6922
v  0.0000 273.6882 318.6922
v  -282.6612 239.4789 -0.0000
v  282.6612 215.5651 -0.0000
v  0.0000 -40.5715 -0.0000
v  282.6612 224.7782 -159.3461
v  0.0000 181.5658 -318.6922
# 52 vertices

vn 0.0082 0.9998 -0.0176
vn 0.8567 0.3518 -0.3773
vn 0.1532 0.3419 -0.9272
vn 0.1532 0.3419 -0.9272
vn 0.0400 0.3034 -0.9520
vn 0.0082 0.9998 -0.0176
vn 0.0400 0.3034 -0.9520
vn -0.1900 0.3726 -0.9083
vn 0.0082 0.9998 -0.0176
vn 0.0082 0.9998 -0.0176
vn -0.1900 0.3726 -0.9083
vn -0.8493 0.3355 -0.4075
vn 0.9530 0.3023 -0.0212
vn 0.8567 0.3518 -0.3773
vn 0.0082 0.9998 -0.0176
vn 0.0082 0.9998 -0.0176
vn -0.8493 0.3355 -0.4075
vn -0.9420 0.3267 -0.0765
vn 0.8164 0.3636 0.4487
vn 0.9530 0.3023 -0.0212
vn 0.0082 0.9998 -0.0176
vn 0.0082 0.9998 -0.0176
vn -0.9420 0.3267 -0.0765
vn -0.8610 0.3567 0.3625
vn 0.5596 0.3222 0.7635
vn 0.8164 0.3636 0.4487
vn 0.0082 0.9998 -0.0176
vn 0.5596 0.3222 0.7635
vn 0.0082 0.9998 -0.0176
vn 0.2278 0.4002 0.8876
vn 0.2278 0.4002 0.8876
vn 0.0082 0.9998 -0.0176
vn -0.6007 0.3757 0.7057
vn -0.8610 0.3567 0.3625
vn -0.6007 0.3757 0.7057
vn 0.0082 0.9998 -0.0176
vn 0.0127 0.9996 -0.0248
vn 0.5864 0.7672 -0.2599
vn 0.1499 0.7617 -0.6303
vn 0.1499 0.7617 -0.6303
vn 0.0531 0.7110 -0.7011
vn 0.0127 0.9996 -0.0248
vn 0.0531 0.7110 -0.7011
vn -0.1421 0.7891 -0.5976
vn 0.0127 0.9996 -0.0248
vn 0.0127 0.9996 -0.0248
vn -0.1421 0.7891 -0.5976
vn -0.5999 0.7495 -0.2800
vn 0.7037 0.7103 -0.0187
vn 0.5864 0.7672 -0.2599
vn 0.0127 0.9996 -0.0248
vn 0.0127 0.9996 -0.0248
vn -0.5999 0.7495 -0.2800
vn -0.6707 0.7401 -0.0493
vn 0.5518 0.7789 0.2982
vn 0.7037 0.7103 -0.0187
vn 0.0127 0.9996 -0.0248
vn 0.0127 0.9996 -0.0248
vn -0.6707 0.7401 -0.0493
vn -0.5852 0.7721 0.2478
vn 0.4131 0.7331 0.5403
vn 0.5518 0.7789 0.2982
vn 0.0127 0.9996 -0.0248
vn 0.4131 0.7331 0.5403
vn 0.0127 0.9996 -0.0248
vn 0.1572 0.8102 0.5647
vn 0.1572 0.8102 0.5647
vn 0.0127 0.9996 -0.0248
vn -0.3660 0.7948 0.4840
vn -0.5852 0.7721 0.2478
vn -0.3660 0.7948 0.4840
vn 0.0127 0.9996 -0.0248
vn -0.0082 -0.9998 0.0176
vn -0.1532 -0.3419 0.9272
vn -0.8567 -0.3518 0.3773
vn -0.1532 -0.3419 0.9272
vn -0.0082 -0.9998 0.0176
vn -0.0400 -0.3034 0.9520
vn -0.0400 -0.3034 0.9520
vn -0.0082 -0.9998 0.0176
vn 0.1900 -0.3726 0.9083
vn -0.0082 -0.9998 0.0176
vn 0.8493 -0.3355 0.4075
vn 0.1900 -0.3726 0.9083
vn -0.9530 -0.3023 0.0212
vn -0.0082 -0.9998 0.0176
vn -0.8567 -0.3518 0.3773
vn -0.0082 -0.9998 0.0176
vn 0.9420 -0.3267 0.0765
vn 0.8493 -0.3355 0.4075
vn -0.8164 -0.3636 -0.4487
vn -0.0082 -0.9998 0.0176
vn -0.9530 -0.3023 0.0212
vn -0.0082 -0.9998 0.0176
vn 0.8610 -0.3567 -0.3625
vn 0.9420 -0.3267 0.0765
vn -0.5596 -0.3222 -0.7635
vn -0.0082 -0.9998 0.0176
vn -0.8164 -0.3636 -0.4487
vn -0.5596 -0.3222 -0.7635
vn -0.2278 -0.4002 -0.8876
vn -0.0082 -0.9998 0.0176
vn -0.2278 -0.4002 -0.8876
vn 0.6007 -0.3757 -0.7057
vn -0.0082 -0.9998 0.0176
vn 0.8610 -0.3567 -0.3625
vn -0.0082 -0.9998 0.0176
vn 0.6007 -0.3757 -0.7057
vn -0.0127 -0.9996 0.0248
vn -0.1499 -0.7617 0.6303
vn -0.5864 -0.7672 0.2599
vn -0.1499 -0.7617 0.6303
vn -0.0127 -0.9996 0.0248
vn -0.0531 -0.7110 0.7011
vn -0.0531 -0.7110 0.7011
vn -0.0127 -0.9996 0.0248
vn 0.1421 -0.7891 0.5976
vn -0.0127 -0.9996 0.0248
vn 0.5999 -0.7495 0.2800
vn 0.1421 -0.7891 0.5976
vn -0.7037 -0.7103 0.0187
vn -0.0127 -0.9996 0.0248
vn -0.5864 -0.7672 0.2599
vn -0.0127 -0.9996 0.0248
vn 0.6707 -0.7401 0.0493
vn 0.5999 -0.7495 0.2800
vn -0.5518 -0.7789 -0.2982
vn -0.0127 -0.9996 0.0248
vn -0.7037 -0.7103 0.0187
vn -0.0127 -0.9996 0.0248
vn 0.5852 -0.7721 -0.2478
vn 0.6707 -0.7401 0.0493
vn -0.4131 -0.7331 -0.5403
vn -0.0127 -0.9996 0.0248
vn -0.5518 -0.7789 -0.2982
vn -0.4131 -0.7331 -0.5403
vn -0.1572 -0.8102 -0.5647
vn -0.0127 -0.9996 0.0248
vn -0.1572 -0.8102 -0.5647
vn 0.3660 -0.7948 -0.4840
vn -0.0127 -0.9996 0.0248
vn 0.5852 -0.7721 -0.2478
vn -0.0127 -0.9996 0.0248
vn 0.3660 -0.7948 -0.4840
# 144 vertex normals

vt 0.4998 0.5000 0.9976
vt 0.0010 0.6843 -0.0119
vt 0.0010 0.3483 -0.0263
vt 0.1337 0.8656 0.0024
vt 0.3149 0.9986 0.0167
vt 0.6509 0.9990 0.0311
vt 0.1439 0.1436 -0.0263
vt 0.8557 0.8564 0.0311
vt 0.3487 0.0010 -0.0263
vt 0.9986 0.6517 0.0311
vt 0.6847 0.0014 -0.0119
vt 0.8659 0.1344 0.0024
vt 0.9986 0.3157 0.0167
vt 0.4998 0.5000 0.9976
vt 0.0010 0.6843 -0.0119
vt 0.0010 0.3483 -0.0263
vt 0.1337 0.8656 0.0024
vt 0.3149 0.9986 0.0167
vt 0.6509 0.9990 0.0311
vt 0.1439 0.1436 -0.0263
vt 0.8557 0.8564 0.0311
vt 0.3487 0.0010 -0.0263
vt 0.9986 0.6517 0.0311
vt 0.6847 0.0014 -0.0119
vt 0.8659 0.1344 0.0024
vt 0.9986 0.3157 0.0167
vt 0.0010 0.6843 -0.0119
vt 0.1337 0.8656 0.0024
vt 0.3149 0.9986 0.0167
vt 0.0010 0.3483 -0.0263
vt 0.6509 0.9990 0.0311
vt 0.1439 0.1436 -0.0263
vt 0.8557 0.8564 0.0311
vt 0.3487 0.0010 -0.0263
vt 0.4998 0.5000 0.9976
vt 0.9986 0.6517 0.0311
vt 0.6847 0.0014 -0.0119
vt 0.8659 0.1344 0.0024
vt 0.9986 0.3157 0.0167
vt 0.0010 0.6843 -0.0119
vt 0.1337 0.8656 0.0024
vt 0.3149 0.9986 0.0167
vt 0.0010 0.3483 -0.0263
vt 0.6509 0.9990 0.0311
vt 0.1439 0.1436 -0.0263
vt 0.8557 0.8564 0.0311
vt 0.3487 0.0010 -0.0263
vt 0.4998 0.5000 0.9976
vt 0.9986 0.6517 0.0311
vt 0.6847 0.0014 -0.0119
vt 0.8659 0.1344 0.0024
vt 0.9986 0.3157 0.0167
# 52 texture coords

g fx_ground_explosion_b
s 1
f 1/1/1 3/3/2 2/2/3 
f 2/2/4 8/4/5 1/1/6 
f 8/4/7 9/5/8 1/1/9 
f 1/1/10 9/5/11 4/6/12 
f 10/7/13 3/3/14 1/1/15 
f 1/1/16 4/6/17 11/8/18 
f 5/9/19 10/7/20 1/1/21 
f 1/1/22 11/8/23 6/10/24 
f 7/11/25 5/9/26 1/1/27 
f 7/11/28 1/1/29 12/12/30 
f 12/12/31 1/1/32 13/13/33 
f 6/10/34 13/13/35 1/1/36 
f 14/14/37 15/16/38 21/15/39 
f 21/15/40 22/17/41 14/14/42 
f 22/17/43 16/18/44 14/14/45 
f 14/14/46 16/18/47 17/19/48 
f 23/20/49 15/16/50 14/14/51 
f 14/14/52 17/19/53 24/21/54 
f 18/22/55 23/20/56 14/14/57 
f 14/14/58 24/21/59 25/23/60 
f 19/24/61 18/22/62 14/14/63 
f 19/24/64 14/14/65 26/25/66 
f 26/25/67 14/14/68 20/26/69 
f 25/23/70 20/26/71 14/14/72 
f 37/35/73 27/27/74 28/30/75 
f 27/27/76 37/35/77 33/28/78 
f 33/28/79 37/35/80 34/29/81 
f 37/35/82 29/31/83 34/29/84 
f 35/32/85 37/35/86 28/30/87 
f 37/35/88 36/33/89 29/31/90 
f 30/34/91 37/35/92 35/32/93 
f 37/35/94 31/36/95 36/33/96 
f 32/37/97 37/35/98 30/34/99 
f 32/37/100 38/38/101 37/35/102 
f 38/38/103 39/39/104 37/35/105 
f 31/36/106 37/35/107 39/39/108 
f 50/48/109 46/40/110 40/43/111 
f 46/40/112 50/48/113 47/41/114 
f 47/41/115 50/48/116 41/42/117 
f 50/48/118 42/44/119 41/42/120 
f 48/45/121 50/48/122 40/43/123 
f 50/48/124 49/46/125 42/44/126 
f 43/47/127 50/48/128 48/45/129 
f 50/48/130 51/49/131 49/46/132 
f 44/50/133 50/48/134 43/47/135 
f 44/50/136 52/51/137 50/48/138 
f 52/51/139 45/52/140 50/48/141 
f 51/49/142 50/48/143 45/52/144 
# 0 polygons - 48 triangles

